<svg width="722" height="823" viewBox="0 0 722 823" fill="none" xmlns="http://www.w3.org/2000/svg">
<path d="M361 782.756V640.894H332.607L338.691 559.398C329.903 556.38 312.326 542.093 312.326 509.093C312.326 476.092 344.775 465.83 361 464.824V332.017L168.331 398.421L161.233 636.869C171.712 653.973 208.082 697.638 269.736 735.468C331.39 773.298 356.268 782.756 361 782.756Z" fill="#FEFEFE"/>
<path d="M361 640.894V782.756C365.732 782.756 390.61 773.298 452.264 735.468C513.918 697.638 550.288 653.973 560.767 636.869L553.669 398.421L361 332.017V464.824C377.225 465.83 409.674 476.092 409.674 509.093C409.674 542.093 392.097 556.38 383.309 559.398L389.393 640.894H361Z" fill="#E1E8EB"/>
<path d="M590.174 227.382L545.556 209.272L539.472 213.296V269.639H533.388L494.854 251.529V190.649L450.236 172.539L444.152 176.563V232.906H438.067L399.534 214.796V153.935V152.929V150.917L361 132.807V297.809L567.865 370.249H570.907C573.611 369.579 580.236 367.633 585.104 365.219C589.971 362.804 591.864 356.835 592.202 354.152V232.412V228.388L590.174 227.382Z" fill="#E1E8EB"/>
<path d="M174.416 209.272L129.798 227.382V354.152C130.136 356.835 132.029 362.804 136.896 365.219C141.763 367.633 148.389 369.579 151.093 370.249H154.135L361 297.809V132.807L320.438 150.917V152.929V153.935V214.796L281.904 232.906H275.82V176.563L269.736 172.539L225.118 190.649V251.529L186.584 269.639H180.5V213.296L174.416 209.272Z" fill="#FEFEFE"/>
<path fill-rule="evenodd" clip-rule="evenodd" d="M361 0L8.11236 128.782C5.40824 130.795 0 136.026 0 140.856V230.4C0.67603 314.578 20.2809 497.02 120.671 633.851C208.066 752.969 320.438 810.256 361 823C401.562 810.256 513.934 752.969 601.329 633.851C701.719 497.02 721.324 314.578 722 230.4V140.856C722 136.026 716.592 130.795 713.888 128.782L361 0ZM361 332.017L553.669 398.421L560.767 636.869C550.288 653.973 513.918 697.638 452.264 735.468C390.61 773.298 365.732 782.756 361 782.756C356.268 782.756 331.39 773.298 269.736 735.468C208.082 697.638 171.712 653.973 161.233 636.869L168.331 398.421L361 332.017ZM129.798 227.382L174.416 209.272L180.5 213.296V269.639H186.584L225.118 251.529V190.649L269.736 172.539L275.82 176.563V232.906H281.904L320.438 214.796V153.935V152.929V150.917L361 132.807L399.534 150.917V152.929V153.935V214.796L438.067 232.906H444.152V176.563L450.236 172.539L494.854 190.649V251.529L533.388 269.639H539.472V213.296L545.556 209.272L590.174 227.382L592.202 228.388V232.412V354.152C591.864 356.835 589.971 362.804 585.104 365.219C580.236 367.633 573.611 369.579 570.907 370.249H567.865L361 297.809L154.135 370.249H151.093C148.389 369.579 141.763 367.633 136.896 365.219C132.029 362.804 130.136 356.835 129.798 354.152V227.382Z" fill="url(#paint0_linear_2073_2340)"/>
<path d="M361 640.894H389.393L383.309 559.398C392.097 556.38 409.674 542.093 409.674 509.093C409.674 476.092 377.225 465.83 361 464.824C344.775 465.83 312.326 476.092 312.326 509.093C312.326 542.093 329.903 556.38 338.691 559.398L332.607 640.894H361Z" fill="#3374FF"/>
<defs>
<linearGradient id="paint0_linear_2073_2340" x1="361" y1="0" x2="361" y2="823" gradientUnits="userSpaceOnUse">
<stop stop-color="#62D1FE"/>
<stop offset="0.543269" stop-color="#3374FF"/>
</linearGradient>
</defs>
</svg>
